<?xml version="1.0" encoding="utf-8"?>
<!-- Generator: Adobe Illustrator 23.0.2, SVG Export Plug-In . SVG Version: 6.00 Build 0)  -->
<svg version="1.1" id="Réteg_1" xmlns="http://www.w3.org/2000/svg" xmlns:xlink="http://www.w3.org/1999/xlink" x="0px" y="0px"
	 viewBox="0 0 841.9 595.3" style="enable-background:new 0 0 841.9 595.3;" xml:space="preserve">
<style type="text/css">
	.st0{fill-rule:evenodd;clip-rule:evenodd;fill:#FFFFFF;}
</style>
<g id="Layer_x0020_1">
	<g id="_4580783712">
		<polygon class="st0" points="359.2,440.3 394.6,440.3 394.6,373.8 454,373.8 454,440.3 489.4,440.3 489.4,283 454,283 454,343.2 
			394.6,343.2 394.6,283 359.2,283 		"/>
		<path class="st0" d="M720.9,319l12.7,32.8c1,2.5,9.4,25.3,9.4,26.2h-44.7c0.1-0.9,2.2-6.2,2.7-7.5l5.6-14.6
			c2.9-7.5,5.5-14.9,8.5-22.3c0.5-1.3,0.9-2.4,1.4-3.7c0.4-1.2,1-2.5,1.4-3.7L720.9,319z M641.9,440.3h36.9
			c0.1-1.1,7.5-22.4,8.5-25.5c0.5-1.4,1-2.8,1.5-4.2c0.2-0.7,0.4-1.3,0.7-2c0.3-0.9,0.6-1.3,0.8-2.2h61.5c0.7,3,5.9,17.1,7.2,21
			c0.6,1.8,4.1,11.9,4.2,12.9h38.1c-0.2-0.7-0.6-1.7-0.9-2.5l-6.3-17.7c-2.4-6.5-4.8-13.7-7.3-20.3l-19-49.6l-12.2-29.1
			c-4.2-9.8-8.4-18.9-12.8-28.4l-4.3-9.6h-33.7c-6.9,13.1-20.7,45.3-25.3,57l-23,59.6c-0.6,1.7-1.2,3.3-1.8,4.9l-5.5,15.3
			C648.6,420.9,642,439,641.9,440.3z"/>
		<path class="st0" d="M518.7,324.3c0,10.2,0.8,16.4,6.1,24.9c4.4,7,11.7,12.8,19,16.5l18.9,7.9c3.9,1.3,12.6,4.4,16.1,6.2
			c1.1,0.6,1.9,0.8,3,1.4c3.9,2.4,6.8,3.5,9.9,8.1c3.5,5.2,2.8,15-1.8,18.4c-3.5,2.6-5.1,3.5-9.9,4.5c-10.8,2.3-26.4,0.8-36.2-2
			c-3.7-1-10.1-3.2-13.7-4.9l-4.3-2l-9.9,28.2c12.4,6.6,20.7,8.9,35.2,10.9c4.1,0.6,8.6,1,13.2,1.1h8.2c7.8-0.3,15.5-1.1,22.2-2.7
			c6.7-1.6,12.5-4.1,18.1-7.8c1.3-0.9,2.4-1.8,3.6-2.7c4.5-3.5,8.8-9.8,10.9-15c4.8-11.7,4.4-31.7-2-42.3c-1.1-1.9-2.2-3.8-3.6-5.5
			c-0.7-0.9-1.3-1.5-2-2.4c-1-1.2-1.6-1.5-2.4-2.2c-1.6-1.5-3.2-2.8-5-4c-3.7-2.5-7.5-4.8-11.6-6.5l-12.8-5.4
			c-8.4-3.3-17.9-5.8-25.4-10.8c-2.2-1.5-3.1-2.1-4.9-4.2c-2.2-2.5-2.5-5.6-2.5-8.9c0-11.3,12.8-13.3,22.1-13.3
			c7.3,0,14.9,0.4,21.1,2.5c5.1,1.7,10.1,3.8,14.5,6.2l2.6-6.9c0.9-2.4,1.7-4.6,2.6-7.1c0.4-1.2,0.8-2.2,1.2-3.4l3.9-10.6
			c-14.9-7.9-30.1-11-47.6-11c-23.9,0-48.3,9.6-55.1,33.8C519.5,316.2,518.7,320.5,518.7,324.3z"/>
		<path class="st0" d="M161.9,392.5c0,10.3,3.2,14.8,8.2,23.2c3.1,5.2,5.4,7.9,11.7,10.3c3.9,1.5,8.6,1.4,12.5,0
			c1.9-0.7,3.5-1.4,5.1-2.5c1.4-1,2.7-2.2,3.9-3.7c1.2-1.4,2-3,2.9-4.6l33.1-57.5H271c3.8,0,6.8-0.2,10.5-0.2c7.1,0,14.2,0,21.3,0
			c3,0,6.5-0.9,8.7-1.8c7.1-3,12.8-10.6,13.6-18.2c0.7-7.3-1.5-11.9-4.3-16.5c-3.1-5-4.5-8.2-9.5-11.8c-4.1-3-9.3-4.9-16.3-4.9
			h-66.1c-7.5,0-16,3.6-21.4,7.7c-1.9,1.4-3.4,2.9-5.1,4.6c-3.7,3.7-8.6,13.3-11.2,17.9c-5.8,10.1-11.7,20.9-17.6,30.8l-5.3,9.2
			c-2,3.7-3.3,5.4-4.9,9.6C162.6,386.2,161.9,389.8,161.9,392.5z"/>
		<path class="st0" d="M96.2,227.8c0,4.5,0.6,8.3,2.6,12l4.6,8.2c3.3,5.4,6.1,10.9,9.4,16.3c5.8,9.5,11.7,20.9,17.4,30.4
			c1.2,2,0.6,1.8-1.9,6.3c-0.8,1.4-1.5,2.6-2.3,4l-18.7,32.5c-1.6,2.8-3,5.4-4.7,8.2c-0.8,1.4-1.5,2.6-2.3,4
			c-0.9,1.4-1.6,2.7-2.4,4.2c-2.7,4.6-3.1,6.5-3.1,12c0,2.7,1.1,5.8,2,7.7c1,2.3,2.5,4,4.2,5.7c3.1,3.1,7.9,5.8,14.1,5.8
			c6,0,15.1,0.6,20.3-1.4c4.1-1.6,8.2-4.1,10.9-7.6l37.8-64.2c0.9-1.5,1.9-5,2.3-7c0.3-1.2,0.5-2.5,0.7-4c1-6.9-0.5-13.9-3-19.9
			c-0.5-1.2-1-1.9-1.6-3.1l-5.3-9c-0.3-0.6-0.5-0.9-0.9-1.4c-0.3-0.6-0.5-0.9-0.9-1.5c-8.7-14.9-17.4-30.4-26.1-45
			c-4.2-7.1-13.1-13.6-24.3-13.6c-7.5,0-12.5-0.6-18.9,3.6c-0.9,0.6-2.3,1.7-3,2.4c-1.9,1.9-3.2,3.6-4.5,6.1
			C97.3,221.5,96.2,224.7,96.2,227.8z"/>
		<path class="st0" d="M161.3,197.9c0,5.7,2,10.1,4.6,14.7l28.1,49.5c1,1.7,5.2,9.4,6.2,10.6c3.7,4.6,6.6,7,11.9,10
			c3.2,1.8,10.2,4.4,15.1,4.4h70.4c8.2,0,16.5-5.4,20.4-12c2-3.4,3.9-6.7,6-10.2c2.2-3.9,4.3-6.8,4.3-12.5c0-7.7-5.1-13.9-10.3-16.4
			c-3.7-1.8-6.2-1.9-11.6-1.9c-4.5,0-9,0-13.5,0c-1.4,0-1.8-0.2-3.1-0.2h-23.6c-8.9,0-17.6-0.2-26.8-0.2c-0.9-1.4-1.7-2.9-2.6-4.4
			c-0.9-1.6-1.7-2.9-2.6-4.6l-23.5-40.9c-0.9-1.5-1.8-3-2.9-4.2c-0.6-0.7-1-1.3-1.7-1.9c-5.2-4.3-10.3-7.2-17.8-7.2
			c-4.2,0-7.5,0.9-11.1,2.4c-3.1,1.3-5.7,3.4-8,5.7c-0.6,0.6-1,1.2-1.5,1.8c-1.6,2-2.7,4-3.8,6.3c-0.8,1.5-1.4,3.1-1.8,4.9
			C161.7,193.2,161.3,196.1,161.3,197.9z"/>
		<path class="st0" d="M229.1,190.3c0,3,0.4,6.2,1,8.7c1.7,7.1,5,13.3,10.1,18.3c0.8,0.8,1.5,1.6,2.4,2.3c0.9,0.7,1.7,1.4,2.7,2.1
			c8.5,6.2,20.8,8.8,31.4,6.1c1.3-0.3,2.5-0.7,3.6-1c1.2-0.4,2.1-0.9,3.3-1.3c3-1.2,6-3.4,8.5-5.4c0.6-0.5,0.7-0.6,1.2-1.1
			c7.2-6.1,12.8-17.2,12.8-26.6c0-7.3-0.5-12.3-3.7-18.8c-1.1-2.2-2.1-4-3.5-5.8c-0.7-0.9-1.2-1.8-2-2.6c-3.3-3.4-3.1-3.5-7.2-6.5
			l-5.9-3.4c-6.1-2.6-9.9-3.5-17.3-3.5C246.7,151.8,229.1,169.2,229.1,190.3z"/>
		<path class="st0" d="M265.1,440.3c8.4,0,13-0.9,19.9-4.6c3.2-1.7,4.3-2.6,7.1-4.9c0.8-0.7,1.7-1.6,2.4-2.4c2.8-2.8,6-7.4,7.6-11.4
			c1.6-3.9,2.6-7.1,3-11.3c0.1-0.8,0-1.5,0.1-2.2c0.1-0.7,0.2-1.4,0.1-2.4c-0.1-1.2-0.3-3.1-0.4-4.3c-0.4-3.7-1.6-8-3.2-11.1
			c-1.5-3-1.6-3.2-3.5-6c-1.6-2.4-2.2-2.7-3.2-4l-3.6-3.5c-0.9-0.7-1.8-1.4-2.8-2.1c-6.5-4.3-13.1-6.9-21.9-6.9
			c-5.6,0-11.8,1.4-15.6,3.3c-2.3,1.1-4.1,2-6.1,3.4c-1.5,1-5.4,4.1-6.5,5.5l-3.2,3.9c-3.7,4.8-6,11-6.9,17.1
			c-1.8,12.7,3,25.7,12.6,34.1c0.5,0.4,0.8,0.6,1.3,1c0.5,0.4,0.9,0.7,1.4,1.1c4.1,3,8.1,4.8,12.9,6.3
			C258.8,439.7,262.2,440.3,265.1,440.3z"/>
		<path class="st0" d="M40.8,295.4c0,6.6,1.1,12.2,3.6,17.2c6.5,12.9,18.5,22.2,34.9,22.2c6.7,0,13.7-2,18.7-4.8
			c2.1-1.2,5.3-3.3,7-5c8.6-8.3,12.8-17.1,12.8-30c0-8.4-4.1-18.7-10.1-24.7c-0.5-0.5-0.6-0.7-1-1.3c-1.3-1.4-6.1-5-7.9-6
			c-9-5.1-19.1-6.7-29.3-4.1c-2.4,0.6-4.8,1.5-6.8,2.5c-1.1,0.5-2,1-3,1.6c-3.5,2-4.1,2.8-6.6,5c-2.3,1.9-1.1,1-2.4,2.4
			c-0.5,0.5-0.7,0.7-1.1,1.2c-0.7,0.9-1.3,1.7-2,2.6c-2.6,3.6-4.6,8.4-5.8,12.8C41.2,289.6,40.8,292.3,40.8,295.4z"/>
	</g>
</g>
</svg>
